<svg xmlns="http://www.w3.org/2000/svg" width="24" height="24" version="1.1"><g transform="translate(0,-1028.3622)"><path fill="gray" stroke="none" d="M 10,6 8,8 1,8 1,21 23,21 23,6 Z m -2,3 4.99414,0 0,0.015625 L 13.005859,9 16,11.994141 16,12.00586 16,19 8,19 Z m 1,1 0,8 6,0 0,-5.99414 -2,0 L 13,10 Z" transform="translate(0,1028.3622)"/><path fill="gray" stroke="none" d="M 2 3 L 2 4 L 2 5 L 3 5 L 12 5 L 22 5 L 22 4 L 12 4 L 11 3 L 2 3 z" transform="translate(0,1028.3622)"/><path fill="gray" fill-opacity=".502" stroke="none" d="M 2 4 L 2 7 L 2 8 L 8 8 L 10 6 L 22 6 L 22 5 L 12 5 L 11 4 L 2 4 z" transform="translate(0,1028.3622)"/><rect width="0" height="16.5" x="-11.743" y="-1046.92" fill="#199ee7" stroke="none" transform="scale(1,-1)"/><rect width="0" height="16.5" x="-18.245" y="-1043.14" fill="#199ee7" stroke="none" transform="scale(1,-1)"/><rect width="0" height="16.5" x="-24.685" y="-1061.77" fill="#199ee7" stroke="none" transform="scale(1,-1)"/></g></svg>