<?xml version="1.0" encoding="UTF-8" standalone="no"?>
<svg
   xmlns:dc="http://purl.org/dc/elements/1.1/"
   xmlns:cc="http://creativecommons.org/ns#"
   xmlns:rdf="http://www.w3.org/1999/02/22-rdf-syntax-ns#"
   xmlns:svg="http://www.w3.org/2000/svg"
   xmlns="http://www.w3.org/2000/svg"
   xmlns:xlink="http://www.w3.org/1999/xlink"
   xmlns:sodipodi="http://sodipodi.sourceforge.net/DTD/sodipodi-0.dtd"
   xmlns:inkscape="http://www.inkscape.org/namespaces/inkscape"
   viewBox="0 0 240 240"
   version="1.1"
   id="svg22"
   sodipodi:docname="Telegram_logo.svg"
   inkscape:version="0.92.3 (2405546, 2018-03-11)"
   inkscape:export-filename="D:\Projects\harbour-telegrame\images\Telegram_logo.png"
   inkscape:export-xdpi="64"
   inkscape:export-ydpi="64">
  <metadata
     id="metadata26">
    <rdf:RDF>
      <cc:Work
         rdf:about="">
        <dc:format>image/svg+xml</dc:format>
        <dc:type
           rdf:resource="http://purl.org/dc/dcmitype/StillImage" />
      </cc:Work>
    </rdf:RDF>
  </metadata>
  <sodipodi:namedview
     pagecolor="#ffffff"
     bordercolor="#666666"
     borderopacity="1"
     objecttolerance="10"
     gridtolerance="10"
     guidetolerance="10"
     inkscape:pageopacity="0"
     inkscape:pageshadow="2"
     inkscape:window-width="1920"
     inkscape:window-height="1017"
     id="namedview24"
     showgrid="false"
     inkscape:zoom="2.7812867"
     inkscape:cx="123.06324"
     inkscape:cy="116.98953"
     inkscape:window-x="1912"
     inkscape:window-y="-8"
     inkscape:window-maximized="1"
     inkscape:current-layer="svg22"
     showguides="false" />
  <defs
     id="defs12">
    <linearGradient
       id="b"
       x1="0.6667"
       y1="0.1667"
       x2="0.4167"
       y2="0.75"
       xlink:href="#w">
      <stop
         stop-color="#37aee2"
         offset="0"
         id="stop2" />
      <stop
         stop-color="#1e96c8"
         offset="1"
         id="stop4" />
    </linearGradient>
    <linearGradient
       id="w"
       x1="0.6597"
       y1="0.4369"
       x2="0.8512"
       y2="0.8024">
      <stop
         stop-color="#eff7fc"
         offset="0"
         id="stop7" />
      <stop
         stop-color="#fff"
         offset="1"
         id="stop9" />
    </linearGradient>
  </defs>
  <path
     style="fill:#808080;fill-opacity:1;stroke:none;stroke-width:1"
     d="M 120 2.8769531 A 117.12363 117.12363 0 0 0 2.8769531 120 A 117.12363 117.12363 0 0 0 120 237.12305 A 117.12363 117.12363 0 0 0 237.12305 120 A 117.12363 117.12363 0 0 0 120 2.8769531 z M 185.27734 61.328125 C 190.11348 61.151329 193.77681 65.526964 191.81445 73.394531 L 168.22461 184.56055 C 166.57732 192.46016 161.80468 194.34817 155.19141 190.69922 L 98.316406 149.32031 L 165 89.144531 C 169.72429 86.187626 164.36049 80.246594 158.67773 84.759766 L 76.380859 136.67969 L 41.552734 127.02344 C 33.876024 124.67293 33.821997 119.39799 43.277344 115.60547 L 181.79688 62.191406 C 182.98311 61.652854 184.16131 61.368924 185.27734 61.328125 z M 163.30664 84.955078 C 165.04254 84.97926 165.75097 86.081729 163.92188 87.705078 L 97.242188 147.87891 L 95.443359 149.32227 L 93.265625 184.63086 C 90.314641 184.45109 90.655489 182.87152 89.318359 178.3457 L 77.095703 138.11523 L 77.101562 138.11719 L 159.39648 86.197266 C 160.85337 85.313804 162.2651 84.940568 163.30664 84.955078 z M 96.970703 150.76172 L 118.98633 166.57812 L 101.98438 180.94531 C 99.977679 182.89627 97.758907 184.54102 94.792969 184.54102 L 96.970703 150.76172 z "
     id="circle14" />
</svg>
