<svg xmlns="http://www.w3.org/2000/svg" xmlns:svg="http://www.w3.org/2000/svg" xmlns:xlink="http://www.w3.org/1999/xlink" id="svg22" version="1.1" viewBox="0 0 240 240"><metadata id="metadata26"/><defs id="defs12"><linearGradient id="b" x1=".667" x2=".417" y1=".167" y2=".75" xlink:href="#w"><stop id="stop2" offset="0" stop-color="#37aee2"/><stop id="stop4" offset="1" stop-color="#1e96c8"/></linearGradient><linearGradient id="w" x1=".66" x2=".851" y1=".437" y2=".802"><stop id="stop7" offset="0" stop-color="#eff7fc"/><stop id="stop9" offset="1" stop-color="#fff"/></linearGradient></defs><path style="fill:gray;fill-opacity:1;stroke:none;stroke-width:1" id="circle14" d="M 120 2.8769531 A 117.12363 117.12363 0 0 0 2.8769531 120 A 117.12363 117.12363 0 0 0 120 237.12305 A 117.12363 117.12363 0 0 0 237.12305 120 A 117.12363 117.12363 0 0 0 120 2.8769531 z M 185.27734 61.328125 C 190.11348 61.151329 193.77681 65.526964 191.81445 73.394531 L 168.22461 184.56055 C 166.57732 192.46016 161.80468 194.34817 155.19141 190.69922 L 98.316406 149.32031 L 165 89.144531 C 169.72429 86.187626 164.36049 80.246594 158.67773 84.759766 L 76.380859 136.67969 L 41.552734 127.02344 C 33.876024 124.67293 33.821997 119.39799 43.277344 115.60547 L 181.79688 62.191406 C 182.98311 61.652854 184.16131 61.368924 185.27734 61.328125 z M 163.30664 84.955078 C 165.04254 84.97926 165.75097 86.081729 163.92188 87.705078 L 97.242188 147.87891 L 95.443359 149.32227 L 93.265625 184.63086 C 90.314641 184.45109 90.655489 182.87152 89.318359 178.3457 L 77.095703 138.11523 L 77.101562 138.11719 L 159.39648 86.197266 C 160.85337 85.313804 162.2651 84.940568 163.30664 84.955078 z M 96.970703 150.76172 L 118.98633 166.57812 L 101.98438 180.94531 C 99.977679 182.89627 97.758907 184.54102 94.792969 184.54102 L 96.970703 150.76172 z"/></svg>