<?xml version="1.0" encoding="UTF-8" standalone="no"?>
<svg
   xmlns:dc="http://purl.org/dc/elements/1.1/"
   xmlns:cc="http://creativecommons.org/ns#"
   xmlns:rdf="http://www.w3.org/1999/02/22-rdf-syntax-ns#"
   xmlns:svg="http://www.w3.org/2000/svg"
   xmlns="http://www.w3.org/2000/svg"
   xmlns:xlink="http://www.w3.org/1999/xlink"
   width="100%"
   height="100%"
   viewBox="0 0 240 240"
   version="1.1"
   xml:space="preserve"
   style="fill-rule:evenodd;clip-rule:evenodd;stroke-linejoin:round;stroke-miterlimit:1.41421;"
   id="svg23"><metadata
   id="metadata27"><rdf:RDF><cc:Work
       rdf:about=""><dc:format>image/svg+xml</dc:format><dc:type
         rdf:resource="http://purl.org/dc/dcmitype/StillImage" /><dc:title></dc:title></cc:Work></rdf:RDF></metadata>
    <path
   id="path2"
   style="fill:url(#linearGradient4546);fill-opacity:1;fill-rule:nonzero;stroke-width:2.80328012"
   d="M 238.9972,4.9657377 C 238.9972,2.775246 237.22196,1 235.03146,1 c 0,0 -113.26179,0 -115.03147,0 C 54.276883,1 0.99999995,54.276886 0.99999995,120 c 0,65.72032 53.27688305,119 118.99999005,119 65.72312,0 119,-53.27968 119,-119 0,-1.77246 -0.003,-115.0342623 -0.003,-115.0342623 z" />
    <path
   style="fill:#18a9d8;fill-opacity:1;fill-rule:nonzero;stroke-width:1.24521995"
   d="m 97.728739,142.10299 15.788841,-13.83151 -0.11524,-19.07617 -36.201168,22.76563 12.697266,41.80078 c 1.66984,4.60856 2.225808,5.92781 5.287562,6.43628 z"
   id="path845" /><path
   style="fill:#2ab6e8;fill-opacity:1;fill-rule:nonzero;stroke-width:1.24521995"
   d="m 166.77734,76.720703 c -1.08227,-0.01504 -2.54862,0.372978 -4.0625,1.291016 l -49.3125,31.183591 v 19.07617 l 54.01364,-48.693335 c 1.90051,-1.686495 1.16511,-2.832359 -0.63868,-2.857422 z"
   id="path6" /><path
   id="path8"
   style="fill:#159abf;fill-opacity:1;fill-rule:nonzero;stroke-width:1.24521995"
   d="m 95.186,180.198 c 3.73566,0 5.38682,-1.70844 7.47132,-3.73566 l 17.99096,-17.5754 -22.919541,-16.78395" /><path
   style="fill:#53cef5;fill-opacity:1;fill-rule:nonzero;stroke-width:1.24521995"
   d="M 113.40234,109.19531 H 40.740234 c -8.371272,3.87788 -8.045225,8.91905 -0.476562,11.23633 l 36.9375,11.5293 z"
   id="path842" /><path
   style="fill:#48c3eb;fill-opacity:1;fill-rule:nonzero;stroke-width:1.24521995"
   d="M 113.51758 128.21875 L 113.51758 128.27148 L 120.04102 122.33203 L 113.51758 128.21875 z "
   id="path840" /><path
   style="fill:#53cef5;fill-opacity:1;fill-rule:nonzero;stroke-width:1.24521995"
   d="m 169.76607,185.63281 -41.14889,-71.08007 -30.888441,27.55025 60.717011,44.4947 c 4.9322,2.72123 8.85224,2.42323 11.32032,-0.96485 z"
   id="path838" /><path
   style="fill:#3ec1ec;fill-opacity:1;fill-rule:nonzero;stroke-width:1.24521995"
   d="m 190.74414,52.210938 c -1.47998,-0.165342 -3.10857,0.10927 -4.75195,0.855468 L 42.056641,108.56641 c -0.501327,0.2011 -0.866279,0.42039 -1.316407,0.6289 h 72.662106 l 49.3125,-31.183591 c 4.03701,-2.448102 7.74201,-1.131986 4.70118,1.566406 l -38.79884,34.974615 41.04884,71.08007 c 0.97086,-1.33277 1.73928,-3.09898 2.22265,-5.41601 L 196.40039,64.707031 c 1.88183,-7.546967 -1.2163,-12.000068 -5.65625,-12.496093 z"
   id="path10" />
    <defs
   id="defs21"><linearGradient
   id="linearGradient4544"><stop
     style="stop-color:#f2f2f2;stop-opacity:1"
     offset="0"
     id="stop4540" /><stop
     style="stop-color:#fbfbfb;stop-opacity:1"
     offset="1"
     id="stop4542" /></linearGradient>
        <linearGradient
   id="_Linear1"
   x1="0"
   y1="0"
   x2="1"
   y2="0"
   gradientUnits="userSpaceOnUse"
   gradientTransform="matrix(203.17164,-203.17164,203.17164,203.17164,35.359221,204.64089)"><stop
     offset="0"
     style="stop-color:rgb(30,152,200);stop-opacity:1"
     id="stop14" /><stop
     offset="1"
     style="stop-color:rgb(146,212,240);stop-opacity:1"
     id="stop16" /></linearGradient>
    
        
    <linearGradient
   xlink:href="#linearGradient4544"
   id="linearGradient4546"
   x1="28.763664"
   y1="195.41632"
   x2="231.42755"
   y2="6.0867963"
   gradientUnits="userSpaceOnUse" />
        
        
        
    </defs>
</svg>